<svg xmlns="http://www.w3.org/2000/svg" viewBox="0 0 256 256"><rect width="256" height="256" fill="none"/><path d="M48.2,193.3A48,48,0,0,1,80,120.3a48.2,48.2,0,0,1,1.9-12.1,80,80,0,0,1,144.2,0,48.2,48.2,0,0,1,1.9,12.1,48,48,0,0,1,31.8,73" fill="none" stroke="#000" stroke-linecap="round" stroke-linejoin="round" stroke-width="16"/><path d="M88,168v-8.2a40,40,0,0,1,80,0V168" fill="none" stroke="#000" stroke-linecap="round" stroke-linejoin="round" stroke-width="16"/><line x1="88" y1="168" x2="168" y2="168" fill="none" stroke="#000" stroke-linecap="round" stroke-linejoin="round" stroke-width="16"/><line x1="128" y1="208" x2="128" y2="184" fill="none" stroke="#000" stroke-linecap="round" stroke-linejoin="round" stroke-width="16"/><polyline points="104 184 128 208 152 184" fill="none" stroke="#000" stroke-linecap="round" stroke-linejoin="round" stroke-width="16"/><line x1="128" y1="128" x2="128" y2="140" fill="none" stroke="#000" stroke-linecap="round" stroke-linejoin="round" stroke-width="16"/><polyline points="104 140 128 128 152 140" fill="none" stroke="#000" stroke-linecap="round" stroke-linejoin="round" stroke-width="16"/></svg>